<?xml version="1.0" encoding="UTF-8"?>
<svg id="Layer_2" data-name="Layer 2" xmlns="http://www.w3.org/2000/svg" viewBox="0 0 616.39 291.02">
  <g id="Layer_1-2" data-name="Layer 1">
    <g>
      <path d="M552.49,258.94l-3.06-1.98c-3.59-2.32-7.76-3.56-12.05-3.56s-8.45,1.23-12.05,3.56l-20.93,13.58-20.93-13.58c-3.59-2.32-7.76-3.56-12.05-3.56s-8.45,1.23-12.05,3.56l-20.93,13.58-20.93-13.58c-3.59-2.32-7.76-3.56-12.05-3.56s-8.45,1.23-12.05,3.56l-20.93,13.58-20.93-13.58c-3.59-2.32-7.76-3.56-12.05-3.56s-8.45,1.23-12.05,3.56l-20.93,13.58-20.93-13.58c-3.59-2.32-7.76-3.56-12.05-3.56s-8.45,1.23-12.05,3.56l-20.93,13.58-20.93-13.58c-3.59-2.32-7.76-3.56-12.05-3.56s-8.45,1.23-12.05,3.56l-20.93,13.58-20.93-13.58c-3.59-2.32-7.76-3.56-12.05-3.56s-8.45,1.23-12.05,3.56l-20.93,13.58-20.93-13.58c-3.59-2.32-7.76-3.56-12.05-3.56s-8.44,1.23-12.03,3.56l-3.09,2v-53.68h-17.87v78.7c0,2.52,2.06,4.27,4.27,4.27.79,0,1.57-.21,2.31-.68l24.09-15.62c.71-.45,1.52-.68,2.32-.68s1.61.23,2.32.68l28.33,18.37c.71.46,1.52.7,2.32.7s1.61-.23,2.32-.7l28.33-18.37c.71-.45,1.52-.68,2.32-.68s1.61.23,2.32.68l28.33,18.37c.71.46,1.52.7,2.32.7s1.61-.23,2.32-.7l28.33-18.37c.71-.45,1.52-.68,2.32-.68s1.61.23,2.32.68l28.33,18.37c.71.46,1.52.7,2.32.7s1.61-.23,2.32-.7l28.33-18.37c.71-.45,1.52-.68,2.32-.68s1.61.23,2.32.68l28.33,18.37c.71.46,1.52.7,2.32.7s1.61-.23,2.32-.7l28.33-18.37c.71-.45,1.52-.68,2.32-.68s1.61.23,2.32.68l28.33,18.37c.71.46,1.52.7,2.32.7s1.61-.23,2.32-.7l28.33-18.37c.71-.45,1.52-.68,2.32-.68s1.61.23,2.32.68l28.33,18.37c.71.46,1.52.7,2.32.7s1.61-.23,2.32-.7l28.33-18.37c.71-.45,1.52-.68,2.32-.68s1.61.23,2.32.68l28.33,18.37c.71.46,1.52.7,2.32.7s1.61-.23,2.32-.7l28.33-18.37c.71-.45,1.52-.68,2.32-.68s1.61.23,2.32.68l24.07,15.62c.73.46,1.52.68,2.31.68,2.22,0,4.27-1.77,4.27-4.27v-78.7h-17.87v53.66ZM561.98,0H51.16c-4.63,0-8.38,3.75-8.38,8.4v49.59h17.87V17.87h491.84v40.11h17.87V8.4c0-4.65-3.75-8.4-8.38-8.4Z"/>
      <g>
        <path d="M0,178.6v-96.51h53.58v10.76H21.41v32.17h21.51v10.66h-21.51v32.17h32.17v10.76H0Z"/>
        <path d="M121.95,103.5h-10.66c-.94-7.17-4.32-10.76-10.15-10.76-3.75,0-6.58.9-8.5,2.71s-2.86,4.51-2.86,8.09c0,2.68,1.06,5.19,3.17,7.54l22.72,25.53c4.19,4.69,6.28,9.74,6.28,15.13v5.43c0,5.8-2.09,10.82-6.28,15.05-4.19,4.24-9.23,6.36-15.13,6.36h-10.76c-7.1,0-12.45-1.79-16.03-5.38-3.59-3.58-5.38-8.93-5.38-16.03h10.76c-.07.74-.1,1.32-.1,1.76,0,2.92,1.12,5.13,3.37,6.64,2.24,1.51,4.71,2.26,7.39,2.26,3.82,0,6.57-.92,8.24-2.76s2.51-4.52,2.51-8.04c0-2.71-1.06-5.23-3.17-7.54l-22.72-25.43c-4.19-4.66-6.28-9.7-6.28-15.13v-5.43c0-5.83,2.09-10.86,6.28-15.08s9.23-6.33,15.13-6.33h10.76c13.4,0,20.54,7.14,21.41,21.41Z"/>
        <path d="M153.11,178.6v-85.75h-21.41v-10.76h64.34v10.76h-21.41v85.75h-21.51Z"/>
        <path d="M211.37,178.6v-96.51h21.46v96.51h-21.46Z"/>
        <path d="M253.12,146.43v-10.76h53.58v10.76h-53.58Z"/>
        <path d="M389.01,157.18c-.94,14.27-8.08,21.41-21.41,21.41h-21.51c-5.86,0-10.9-2.1-15.1-6.31-4.21-4.21-6.31-9.24-6.31-15.11v-53.68c0-5.76,2.07-10.77,6.21-15.03s9.21-6.38,15.2-6.38h21.51c13.47,0,20.61,7.14,21.41,21.41h-10.76c-.84-7.1-4.39-10.66-10.66-10.66h-10.76c-2.95,0-5.48,1.05-7.59,3.14-2.11,2.1-3.17,4.6-3.17,7.52v53.68c0,2.88,1.05,5.38,3.14,7.49,2.09,2.11,4.63,3.17,7.61,3.17h10.76c6.3,0,9.85-3.55,10.66-10.66h10.76Z"/>
        <path d="M405.91,178.6v-75.09c0-5.86,2.1-10.9,6.31-15.1,4.2-4.21,9.24-6.31,15.1-6.31h21.51c5.86,0,10.9,2.11,15.11,6.33,4.2,4.22,6.31,9.25,6.31,15.08v75.09h-21.41v-42.93h-21.51v42.93h-21.41ZM427.33,125.01h21.51v-21.51c0-2.91-1.06-5.42-3.19-7.52-2.13-2.09-4.65-3.14-7.57-3.14s-5.48,1.05-7.59,3.14c-2.11,2.1-3.17,4.6-3.17,7.52v21.51Z"/>
        <path d="M488.54,178.6v-96.51h21.41v85.75h32.17v10.76h-53.58Z"/>
        <path d="M616.39,157.18c-.94,14.27-8.08,21.41-21.41,21.41h-21.51c-5.86,0-10.9-2.1-15.1-6.31-4.21-4.21-6.31-9.24-6.31-15.11v-53.68c0-5.76,2.07-10.77,6.21-15.03,4.14-4.25,9.21-6.38,15.2-6.38h21.51c13.47,0,20.61,7.14,21.41,21.41h-10.76c-.84-7.1-4.39-10.66-10.66-10.66h-10.76c-2.95,0-5.48,1.05-7.59,3.14-2.11,2.1-3.17,4.6-3.17,7.52v53.68c0,2.88,1.05,5.38,3.14,7.49,2.09,2.11,4.63,3.17,7.61,3.17h10.76c6.3,0,9.85-3.55,10.66-10.66h10.76Z"/>
      </g>
    </g>
  </g>
</svg>